<?xml version="1.0" standalone="no"?>
<!DOCTYPE svg PUBLIC "-//W3C//DTD SVG 20010904//EN"
 "http://www.w3.org/TR/2001/REC-SVG-20010904/DTD/svg10.dtd">
<svg version="1.0" xmlns="http://www.w3.org/2000/svg"
 width="256.000000pt" height="256.000000pt" viewBox="0 0 256.000000 256.000000"
 preserveAspectRatio="xMidYMid meet">
<metadata>
Created by potrace 1.11, written by Peter Selinger 2001-2013
</metadata>
<g transform="translate(0.000000,256.000000) scale(0.100000,-0.100000)"
fill="#000000" stroke="none">
<path d="M172 2388 c-19 -19 -17 -1641 1 -1657 10 -7 153 -12 469 -13 l456 -3
-62 -155 -62 -155 -120 -5 -119 -5 -50 -97 c-40 -79 -48 -101 -39 -115 10 -17
50 -18 634 -18 584 0 624 1 634 18 9 14 1 36 -39 115 l-50 97 -119 5 -120 5
-62 155 -62 155 456 3 c316 1 459 6 469 13 18 16 20 1638 1 1657 -17 17 -2199
17 -2216 0z m2148 -708 l0 -640 -1040 0 -1040 0 0 640 0 640 1040 0 1040 0 0
-640z m0 -800 l0 -80 -1040 0 -1040 0 0 80 0 80 1040 0 1040 0 0 -80z m-884
-320 l62 -155 -109 -3 c-60 -1 -158 -1 -218 0 l-109 3 54 135 c29 74 58 145
64 158 9 22 14 23 102 20 l92 -3 62 -155z m357 -275 c9 -20 17 -38 17 -40 0
-3 -238 -5 -530 -5 -291 0 -530 2 -530 5 0 2 8 20 17 40 l17 35 496 0 496 0
17 -35z"/>
<path d="M332 2228 c-17 -17 -17 -1079 0 -1096 17 -17 1879 -17 1896 0 17 17
17 1079 0 1096 -17 17 -1879 17 -1896 0z m1828 -548 l0 -480 -880 0 -880 0 0
480 0 480 880 0 880 0 0 -480z"/>
<path d="M1346 2043 c-14 -45 -206 -734 -206 -738 0 -3 15 -5 34 -5 30 0 36 4
45 33 15 46 201 715 201 722 0 3 -15 5 -34 5 -24 0 -36 -5 -40 -17z"/>
<path d="M828 1818 l-238 -101 0 -38 c0 -21 6 -41 13 -46 13 -8 467 -203 473
-203 2 0 4 19 4 43 l0 44 -190 78 c-104 43 -190 79 -190 80 0 1 86 38 190 81
l190 78 0 43 c0 24 -3 43 -7 42 -5 0 -115 -46 -245 -101z"/>
<path d="M1480 1878 l0 -44 190 -78 c105 -43 190 -80 190 -81 0 -1 -85 -37
-190 -80 l-190 -78 0 -44 c0 -24 3 -43 8 -42 4 0 113 46 242 102 l235 102 3
41 3 40 -233 98 c-128 54 -239 101 -245 103 -9 4 -13 -8 -13 -39z"/>
</g>
</svg>
