<?xml version="1.0" standalone="no"?>
<!DOCTYPE svg PUBLIC "-//W3C//DTD SVG 20010904//EN"
 "http://www.w3.org/TR/2001/REC-SVG-20010904/DTD/svg10.dtd">
<svg version="1.0" xmlns="http://www.w3.org/2000/svg"
 width="128.000000pt" height="128.000000pt" viewBox="0 0 128.000000 128.000000"
 preserveAspectRatio="xMidYMid meet">
<metadata>
Created by potrace 1.11, written by Peter Selinger 2001-2013
</metadata>
<g transform="translate(0.000000,128.000000) scale(0.100000,-0.100000)"
fill="#000000" stroke="none">
<path d="M314 1261 c-64 -39 -74 -63 -74 -180 0 -68 -4 -111 -12 -119 -13 -13
-13 -79 1 -115 6 -14 19 -28 30 -32 12 -3 21 -15 21 -26 0 -36 30 -93 71 -135
56 -57 52 -83 -16 -101 -27 -7 -85 -13 -128 -13 l-78 0 -14 -32 c-7 -18 -27
-43 -44 -56 -57 -41 -65 -71 -69 -244 l-4 -157 26 -25 25 -26 469 0 469 0 21
23 c20 22 22 33 22 163 0 76 -5 156 -11 177 -11 42 -60 103 -90 112 -10 4 -19
14 -19 24 0 31 -22 41 -94 41 -39 0 -93 6 -121 13 -67 18 -72 44 -17 101 22
22 45 51 51 64 10 19 20 22 71 22 33 0 60 -3 60 -6 0 -3 -5 -25 -11 -50 -9
-34 -9 -47 1 -59 7 -8 16 -15 20 -15 5 0 46 28 92 62 l83 63 94 5 c86 5 95 8
117 33 23 27 24 34 24 182 0 84 -4 165 -10 179 -18 50 -50 56 -278 56 l-209 0
-12 24 c-7 13 -30 33 -51 45 -34 19 -53 21 -206 21 -148 0 -173 -2 -200 -19z
m904 -127 c21 -14 22 -21 22 -166 0 -190 1 -188 -117 -188 l-85 0 -71 -55
c-40 -31 -73 -52 -75 -46 -2 5 1 27 7 47 6 20 8 41 5 46 -3 4 -39 8 -80 8 -59
0 -74 3 -74 15 0 8 7 15 15 15 24 0 46 44 45 91 0 24 -3 90 -6 147 l-5 102
198 0 c164 0 202 -3 221 -16z m-760 -30 c13 -9 38 -16 57 -16 19 0 44 7 57 16
29 20 82 21 102 0 12 -11 16 -36 16 -94 0 -43 5 -82 10 -85 6 -3 10 -40 10
-82 0 -93 -26 -145 -98 -195 -66 -46 -128 -46 -194 0 -72 50 -98 102 -98 195
0 42 5 79 10 82 6 3 10 42 10 85 0 58 4 83 16 94 20 21 73 20 102 0z m-178
-217 c0 -47 -17 -40 -20 8 -3 42 -1 47 10 40 6 -3 10 -25 10 -48z m493 10 c-9
-50 -23 -56 -23 -11 0 42 7 57 21 48 5 -2 6 -19 2 -37z m-271 -325 c21 -2 51
1 67 6 25 9 30 8 34 -9 5 -18 -1 -19 -88 -19 -89 0 -93 1 -88 21 4 14 10 18
22 13 9 -4 33 -9 53 -12z m360 -197 c-1 -71 -6 -161 -10 -200 l-7 -70 -329 -3
c-182 -1 -333 1 -337 5 -10 11 -33 367 -26 387 6 15 43 16 359 14 l353 -3 -3
-130z m118 -27 c6 -20 9 -97 8 -170 l-3 -133 -27 -3 c-22 -3 -28 1 -28 17 0
11 -9 26 -21 35 -20 14 -21 17 -10 153 6 77 11 152 11 168 l0 29 30 -29 c17
-16 35 -46 40 -67z m-860 -75 c11 -141 11 -155 -6 -192 -11 -22 -26 -41 -35
-41 -32 0 -39 22 -38 135 0 142 10 199 39 230 13 14 25 24 26 22 2 -1 8 -71
14 -154z m770 -223 c0 -6 -132 -10 -375 -10 -243 0 -375 4 -375 10 0 6 132 10
375 10 243 0 375 -4 375 -10z"/>
<path d="M996 981 c-51 -101 -51 -101 -33 -101 18 0 101 170 88 183 -6 6 -25
-22 -55 -82z"/>
<path d="M868 979 c-16 -11 -28 -24 -28 -29 0 -5 16 -18 35 -30 43 -27 65 -17
35 15 l-22 23 21 11 c12 7 21 16 21 21 0 17 -34 10 -62 -11z"/>
<path d="M1080 991 c0 -6 9 -16 21 -24 l20 -15 -22 -16 c-17 -12 -20 -19 -12
-27 9 -9 21 -6 47 11 20 12 36 25 36 30 0 13 -55 50 -74 50 -9 0 -16 -4 -16
-9z"/>
<path d="M472 344 c-16 -11 -22 -25 -22 -54 0 -29 6 -43 22 -54 49 -35 111 -4
111 54 0 58 -62 89 -111 54z m72 -39 c9 -24 -4 -45 -29 -45 -27 0 -40 26 -24
46 15 18 45 18 53 -1z"/>
</g>
</svg>
